<svg width="50" height="50" viewBox="0 0 50 50" fill="none" xmlns="http://www.w3.org/2000/svg">
<path d="M11.4808 43C12.3077 43 13.0106 42.6693 13.8376 42.1939L37.9428 28.2599C39.6586 27.2469 40.2581 26.5854 40.2581 25.4897C40.2581 24.394 39.6586 23.7325 37.9428 22.7401L13.8376 8.78559C13.0106 8.3101 12.3077 8 11.4808 8C9.95098 8 9 9.15771 9 10.9563V40.0231C9 41.8217 9.95098 43 11.4808 43ZM12.5351 39.0515C12.4111 39.0515 12.3284 38.9687 12.3284 38.8033V12.176C12.3284 12.0106 12.4111 11.9279 12.5351 11.9279C12.6178 11.9279 12.7005 11.9693 12.7832 12.0313L35.6688 25.2623C35.7721 25.3243 35.8547 25.3863 35.8547 25.4897C35.8547 25.5931 35.7721 25.6758 35.6688 25.7171L12.7832 38.9687C12.7005 39.0102 12.6178 39.0515 12.5351 39.0515Z" fill="white"/>
</svg>
