<svg width="40" height="40" viewBox="0 0 40 40" fill="none" xmlns="http://www.w3.org/2000/svg">
<path d="M25.716 26.5097L27.8141 28.8886H33.7097C35.7634 28.8886 36.9011 27.7508 36.9011 25.7265V9.57677C36.9011 7.56727 35.7634 6.39999 33.7097 6.39999H5.57668C3.58196 6.39999 2.3999 7.6116 2.3999 9.57677V25.7265C2.3999 27.7508 3.52286 28.8886 5.57668 28.8886H11.6199L13.7181 26.5097H5.94607C5.25162 26.5097 4.91178 26.155 4.91178 25.4607V9.84273C4.91178 9.14828 5.25162 8.77889 5.94607 8.77889H33.3402C34.0347 8.77889 34.3893 9.14828 34.3893 9.84273V25.4607C34.3893 26.155 34.0347 26.5097 33.3402 26.5097H25.716ZM28.6711 34.4C29.3656 34.4 29.6314 33.6907 29.1883 33.1884L20.2785 23.0966C19.9387 22.7123 19.3477 22.7123 19.0078 23.0966L10.098 33.1884C9.65476 33.6907 9.92072 34.4 10.6152 34.4H28.6711Z" fill="white"/>
</svg>
