<svg width="40" height="40" viewBox="0 0 40 40" fill="none" xmlns="http://www.w3.org/2000/svg">
<path d="M13.9534 36C19.8951 36 24.7066 31.1732 24.7066 25.2314C24.7066 19.3203 19.8799 14.4935 13.9534 14.4935C8.02692 14.4935 3.2002 19.3203 3.2002 25.2314C3.2002 31.1732 8.02692 36 13.9534 36ZM13.9534 33.5561C9.3558 33.5561 5.64411 29.8443 5.64411 25.2314C5.64411 20.6644 9.3558 16.9374 13.9534 16.9374C18.5357 16.9374 22.2627 20.6491 22.2627 25.2314C22.2627 29.8291 18.5357 33.5561 13.9534 33.5561Z" fill="white" fill-opacity="0.4"/>
<path d="M26.1426 36C32.0538 36 36.8804 31.1732 36.8804 25.2314C36.8804 19.3203 32.0538 14.4935 26.1426 14.4935C20.2007 14.4935 15.374 19.3203 15.374 25.2314C15.374 31.1732 20.2007 36 26.1426 36ZM26.1426 33.5561C21.5449 33.5561 17.8179 29.8443 17.8179 25.2314C17.8179 20.6644 21.5449 16.9374 26.1426 16.9374C30.7096 16.9374 34.4365 20.6491 34.4365 25.2314C34.4365 29.8291 30.7401 33.5561 26.1426 33.5561Z" fill="white" fill-opacity="0.7"/>
<path d="M20.0478 25.5064C25.9742 25.5064 30.7857 20.6949 30.7857 14.7532C30.7857 8.82672 25.9742 4 20.0478 4C14.106 4 9.2793 8.82672 9.2793 14.7532C9.2793 20.6949 14.106 25.5064 20.0478 25.5064ZM20.0478 23.0625C15.4502 23.0625 11.7232 19.3508 11.7232 14.7532C11.7232 10.1709 15.4502 6.44391 20.0478 6.44391C24.6148 6.44391 28.3418 10.1709 28.3418 14.7532C28.3418 19.3508 24.6302 23.0625 20.0478 23.0625Z" fill="white"/>
</svg>
